# Blender v2.92.0 OBJ File: 'powerups 5.blend'
# www.blender.org
mtllib negative-speed.mtl
o negative-speed_Cube.099
v -0.812474 1.063854 -0.009341
v -0.812474 0.945475 -0.009342
v 0.010659 1.063854 0.813792
v 0.186109 1.063854 -0.187486
v 0.188074 0.945475 -0.184663
v 0.008347 0.945475 0.811479
v 0.419062 1.039962 -0.724779
v 0.419062 0.970106 -0.724779
v 0.740028 1.039962 -0.403814
v 0.808441 1.039962 -0.794244
v 0.809207 0.970106 -0.793142
v 0.739126 0.970106 -0.404716
v -0.076053 1.049664 -0.456701
v -0.076053 0.959665 -0.456701
v 0.453370 1.049664 0.072723
v 0.566216 1.049664 -0.571280
v 0.567480 0.959665 -0.569464
v 0.451883 0.959665 0.071235
v -0.812474 0.007822 1.091868
v -0.812474 0.007822 0.973489
v 0.010659 -0.815312 1.091868
v 0.186109 0.185967 1.091868
v 0.188074 0.183143 0.973489
v 0.008346 -0.812999 0.973489
v 0.419062 0.723260 1.067976
v 0.419062 0.723260 0.998120
v 0.740027 0.402294 1.067975
v 0.808440 0.792724 1.067975
v 0.809206 0.791623 0.998120
v 0.739125 0.403196 0.998120
v -0.076053 0.455181 1.077677
v -0.076053 0.455181 0.987679
v 0.453370 -0.074242 1.077677
v 0.566216 0.569760 1.077677
v 0.567479 0.567944 0.987679
v 0.451883 -0.072755 0.987679
v 1.056998 0.835304 0.043596
v 0.938618 0.835304 0.043596
v 1.056998 0.012171 0.866730
v 1.056998 -0.163279 -0.134548
v 0.938619 -0.165244 -0.131725
v 0.938618 0.014483 0.864417
v 1.033105 -0.396233 -0.671841
v 0.963250 -0.396233 -0.671841
v 1.033105 -0.717198 -0.350876
v 1.033105 -0.785611 -0.741305
v 0.963250 -0.786377 -0.740204
v 0.963250 -0.716296 -0.351778
v 1.042808 0.098883 -0.403763
v 0.952809 0.098883 -0.403763
v 1.042807 -0.430540 0.125661
v 1.042807 -0.543386 -0.518342
v 0.952809 -0.544650 -0.516526
v 0.952809 -0.429053 0.124173
v 0.818214 -0.018303 -1.070466
v 0.818214 -0.018303 -0.952087
v -0.004919 -0.841437 -1.070466
v -0.180369 0.159841 -1.070466
v -0.182334 0.157017 -0.952087
v -0.002606 -0.839124 -0.952087
v -0.413322 0.697134 -1.046574
v -0.413322 0.697134 -0.976718
v -0.734287 0.376169 -1.046574
v -0.802701 0.766598 -1.046574
v -0.803467 0.765497 -0.976718
v -0.733385 0.377070 -0.976718
v 0.081793 0.429056 -1.056276
v 0.081793 0.429056 -0.966277
v -0.447630 -0.100368 -1.056276
v -0.560476 0.543635 -1.056276
v -0.561740 0.541818 -0.966277
v -0.446142 -0.098881 -0.966277
v -1.101968 0.856892 -0.024150
v -0.983588 0.856892 -0.024150
v -1.101968 0.033759 -0.847284
v -1.101968 -0.141691 0.153994
v -0.983588 -0.143656 0.151170
v -0.983588 0.036072 -0.844972
v -1.078075 -0.374645 0.691287
v -1.008220 -0.374645 0.691287
v -1.078075 -0.695609 0.370321
v -1.078075 -0.764023 0.760751
v -1.008220 -0.764789 0.759650
v -1.008220 -0.694708 0.371223
v -1.087777 0.120471 0.423208
v -0.997779 0.120471 0.423209
v -1.087777 -0.408952 -0.106215
v -1.087777 -0.521798 0.537787
v -0.997779 -0.523062 0.535971
v -0.997779 -0.407464 -0.104728
v 0.856237 -0.972840 -0.032911
v 0.856237 -1.091219 -0.032911
v 0.033104 -0.972840 -0.856044
v -0.142346 -0.972840 0.145234
v -0.144310 -1.091219 0.142410
v 0.035416 -1.091220 -0.853732
v -0.375299 -0.996732 0.682527
v -0.375299 -1.066588 0.682527
v -0.696263 -0.996733 0.361562
v -0.764677 -0.996733 0.751991
v -0.765443 -1.066588 0.750890
v -0.695362 -1.066588 0.362463
v 0.119816 -0.987031 0.414448
v 0.119816 -1.077029 0.414448
v -0.409607 -0.987031 -0.114975
v -0.522452 -0.987030 0.529028
v -0.523716 -1.077029 0.527211
v -0.408120 -1.077029 -0.113487
v -1.010201 -1.007473 1.003162
v -1.010200 -1.007472 -0.996837
v -1.010200 0.992527 1.003162
v 0.989799 -1.007472 1.003162
v 0.989799 -1.007472 -0.996837
v 0.989799 0.992527 1.003162
v 0.989799 0.992527 -0.996837
v -1.010201 0.992527 -0.996837
vt 0.106835 0.943412
vt 0.091635 0.943412
vt 0.091635 0.837274
vt 0.106835 0.836655
vt 0.933202 0.680475
vt 0.933202 0.468102
vt 0.948402 0.467503
vt 0.948402 0.680475
vt 0.106835 0.730439
vt 0.000000 0.623605
vt 0.106835 0.517467
vt 0.091635 0.730439
vt 0.106835 0.731038
vt 0.106835 0.623084
vt 0.213592 0.517467
vt 0.213592 0.729841
vt 0.348319 0.810027
vt 0.357288 0.810027
vt 0.357288 0.851414
vt 0.348319 0.851655
vt 0.988116 0.413568
vt 0.988116 0.330757
vt 0.997085 0.330523
vt 0.997085 0.413568
vt 0.348319 0.893072
vt 0.306660 0.851414
vt 0.348319 0.810028
vt 0.357288 0.893072
vt 0.348319 0.892839
vt 0.976560 0.467503
vt 0.918003 0.467503
vt 0.976244 0.408633
vt 0.978062 0.981810
vt 0.978062 0.845216
vt 0.989617 0.844831
vt 0.989617 0.981810
vt 0.988115 0.467503
vt 0.976560 0.467503
vt 0.976560 0.399238
vt 0.988115 0.398839
vt 0.068714 0.867419
vt 0.000000 0.798705
vt 0.068714 0.730439
vt 0.976560 0.330523
vt 0.988115 0.330908
vt 0.237996 0.877958
vt 0.306660 0.810028
vt 0.306660 0.946622
vt 0.965997 0.631687
vt 0.948402 0.625325
vt 0.948402 0.467503
vt 0.965997 0.473554
vt 0.960467 0.981285
vt 0.960467 0.851557
vt 0.978062 0.844831
vt 0.978062 0.974923
vt 0.810845 0.322204
vt 0.933479 0.277441
vt 0.933479 0.408633
vt 0.360767 0.663747
vt 0.237996 0.619358
vt 0.240964 0.604026
vt 0.362990 0.648848
vt 0.362990 0.517467
vt 0.976509 0.841932
vt 0.966126 0.838178
vt 0.966126 0.776639
vt 0.976509 0.780271
vt 0.821227 0.995163
vt 0.821227 0.944578
vt 0.831610 0.940682
vt 0.831610 0.991409
vt 0.935838 0.017455
vt 0.983657 0.000000
vt 0.983657 0.051156
vt 0.507450 0.879590
vt 0.459578 0.862281
vt 0.461261 0.853283
vt 0.508842 0.870760
vt 0.508842 0.819531
vt 0.997134 0.051156
vt 0.997134 0.134594
vt 0.983758 0.139666
vt 0.983758 0.055992
vt 0.482090 0.879590
vt 0.495466 0.884426
vt 0.495466 0.985934
vt 0.482090 0.981298
vt 0.000000 0.896211
vt 0.078876 0.867419
vt 0.078876 0.951800
vt 0.592548 0.942985
vt 0.513585 0.914435
vt 0.515801 0.902807
vt 0.594285 0.931635
vt 0.594285 0.847134
vt 0.810845 0.101891
vt 0.813468 0.086803
vt 0.935838 0.131476
vt 0.933525 0.146248
vt 0.965997 0.603958
vt 0.965997 0.474230
vt 0.983591 0.467503
vt 0.983591 0.597596
vt 0.935838 0.000000
vt 0.966273 0.152163
vt 0.966273 0.310411
vt 0.948678 0.303684
vt 0.948678 0.146248
vt 0.810845 0.633452
vt 0.918003 0.558242
vt 0.918003 0.707851
vt 0.306660 0.935823
vt 0.308209 0.926919
vt 0.355924 0.944339
vt 0.354497 0.953119
vt 0.810845 0.995163
vt 0.810845 0.944578
vt 0.821227 0.940682
vt 0.821227 0.991409
vt 0.355924 0.893072
vt 1.000000 0.848410
vt 1.000000 0.910116
vt 0.989617 0.906220
vt 0.989617 0.844831
vt 0.983758 0.102024
vt 0.935838 0.084426
vt 0.983758 0.051156
vt 0.962054 0.310411
vt 0.962054 0.393849
vt 0.948678 0.398921
vt 0.948678 0.315247
vt 0.674986 0.914434
vt 0.676981 0.902964
vt 0.755687 0.931697
vt 0.753892 0.942964
vt 0.755687 0.847134
vt 0.983721 0.741966
vt 0.983721 0.640184
vt 0.997097 0.645256
vt 0.997097 0.746516
vt 0.185877 0.959994
vt 0.106835 0.930967
vt 0.185877 0.876089
vt 0.213592 0.517467
vt 0.231187 0.523829
vt 0.231187 0.681651
vt 0.213592 0.675600
vt 0.983721 0.640184
vt 0.983721 0.769912
vt 0.966126 0.776639
vt 0.966126 0.646546
vt 0.810845 0.191012
vt 0.933479 0.146248
vt 0.933479 0.277441
vt 0.360767 0.810027
vt 0.237996 0.765638
vt 0.240964 0.750307
vt 0.362990 0.795128
vt 0.362990 0.663747
vt 0.993974 0.639128
vt 0.983591 0.635374
vt 0.983591 0.573834
vt 0.993974 0.577467
vt 0.841992 0.995163
vt 0.841992 0.944578
vt 0.852375 0.940682
vt 0.852375 0.991409
vt 0.755687 0.924647
vt 0.803505 0.907193
vt 0.803505 0.958349
vt 0.803559 0.907193
vt 0.755687 0.889884
vt 0.757369 0.880886
vt 0.804951 0.898363
vt 0.804951 0.847134
vt 0.983721 0.835025
vt 0.983721 0.751587
vt 0.997097 0.746516
vt 0.997097 0.830189
vt 0.495466 0.879590
vt 0.508842 0.884426
vt 0.508842 0.985934
vt 0.495466 0.981298
vt 0.948531 0.804347
vt 0.879559 0.756461
vt 0.948531 0.707851
vt 0.889808 0.940681
vt 0.810845 0.912131
vt 0.813061 0.900504
vt 0.891545 0.929332
vt 0.891545 0.844831
vt 0.106835 0.831732
vt 0.109459 0.816644
vt 0.231828 0.861318
vt 0.229516 0.876089
vt 0.086309 0.730439
vt 0.086309 0.860167
vt 0.068714 0.866894
vt 0.068714 0.736801
vt 0.231828 0.729841
vt 0.966126 0.646099
vt 0.966126 0.804347
vt 0.948531 0.797621
vt 0.948531 0.640184
vt 0.810845 0.483843
vt 0.918003 0.408633
vt 0.918003 0.558242
vt 0.185877 0.918839
vt 0.187426 0.909936
vt 0.235141 0.927356
vt 0.233714 0.936135
vt 0.841992 0.940681
vt 0.841992 0.991266
vt 0.831610 0.995163
vt 0.831610 0.944435
vt 0.235141 0.876089
vt 0.989384 0.290998
vt 0.989384 0.229292
vt 0.999767 0.233188
vt 0.999767 0.294578
vt 0.233797 0.987003
vt 0.185877 0.969406
vt 0.233797 0.936135
vt 0.975431 0.310411
vt 0.975431 0.393849
vt 0.962055 0.398921
vt 0.962055 0.315247
vt 0.594285 0.914434
vt 0.596280 0.902964
vt 0.674986 0.931697
vt 0.673191 0.942964
vt 0.674986 0.847134
vt 0.983591 0.569285
vt 0.983591 0.467503
vt 0.996968 0.472575
vt 0.996968 0.573835
vt 0.891545 0.893204
vt 0.960467 0.844831
vt 0.960467 0.941056
vt 0.933202 0.680475
vt 0.918003 0.680475
vt 0.918003 0.574338
vt 0.933202 0.573719
vt 0.933479 0.359220
vt 0.933479 0.146846
vt 0.948678 0.146248
vt 0.948678 0.359220
vt 0.513090 0.517467
vt 0.513585 0.668554
vt 0.362990 0.668554
vt 0.918003 0.467503
vt 0.933202 0.468102
vt 0.513161 0.819530
vt 0.362990 0.818725
vt 0.513161 0.668554
vt 0.087845 0.950463
vt 0.078876 0.950463
vt 0.078876 0.909077
vt 0.087845 0.908836
vt 0.989384 0.229292
vt 0.989384 0.146481
vt 0.998353 0.146248
vt 0.998353 0.229292
vt 0.421519 0.916635
vt 0.421712 0.975548
vt 0.362990 0.975548
vt 0.078876 0.867419
vt 0.087845 0.867652
vt 0.480269 0.975505
vt 0.421712 0.975505
vt 0.479953 0.916635
vt 0.989384 0.146248
vt 0.989384 0.282842
vt 0.977829 0.283227
vt 0.977829 0.146248
vt 0.977828 0.283227
vt 0.966273 0.283227
vt 0.966273 0.214962
vt 0.977828 0.214563
vt 0.879559 0.844831
vt 0.810845 0.776116
vt 0.879559 0.707851
vt 0.966273 0.146248
vt 0.977828 0.146633
vt 0.459578 0.916635
vt 0.362990 0.916635
vt 0.459057 0.819531
vt 0.810845 0.423567
vt 0.513585 0.316092
vt 0.513585 0.000000
vt 0.810845 0.107475
vt 0.256792 0.258734
vt 0.000000 0.258734
vt 0.000000 0.000000
vt 0.256792 0.000000
vt 0.256793 0.517467
vt 0.000000 0.517467
vt 0.513585 0.258734
vt 0.256793 0.258734
vt 0.256793 0.000000
vt 0.513585 0.739659
vt 0.513585 0.423567
vt 0.810845 0.531042
vt 0.810845 0.847134
vt 0.513585 0.517467
vt 0.256793 0.517467
vn -0.1741 -0.0132 -0.9846
vn -0.7071 0.0000 0.7071
vn -0.0000 1.0000 0.0000
vn 0.9846 -0.0011 0.1751
vn 0.0000 -1.0000 -0.0000
vn -0.1741 -0.0087 -0.9847
vn 0.9846 -0.0007 0.1751
vn -0.1741 -0.0112 -0.9847
vn 0.9846 -0.0009 0.1751
vn -0.1741 0.9846 -0.0132
vn -0.7071 -0.7071 -0.0000
vn 0.0000 -0.0000 1.0000
vn 0.9846 -0.1751 -0.0011
vn -0.0000 0.0000 -1.0000
vn -0.1741 0.9847 -0.0087
vn 0.9846 -0.1751 -0.0007
vn -0.1741 0.9847 -0.0112
vn 0.9846 -0.1751 -0.0009
vn -0.0132 0.1741 -0.9846
vn -0.0000 0.7071 0.7071
vn 1.0000 0.0000 0.0000
vn -0.0011 -0.9846 0.1751
vn -1.0000 -0.0000 -0.0000
vn -0.0087 0.1741 -0.9847
vn -0.0007 -0.9846 0.1751
vn -0.0112 0.1741 -0.9847
vn -0.0009 -0.9846 0.1751
vn 0.1741 0.9846 0.0132
vn 0.7071 -0.7071 0.0000
vn -0.9846 -0.1751 0.0011
vn 0.1741 0.9847 0.0087
vn -0.9846 -0.1751 0.0007
vn 0.1741 0.9847 0.0112
vn -0.9846 -0.1751 0.0009
vn 0.0132 0.1741 0.9846
vn 0.0000 0.7071 -0.7071
vn 0.0011 -0.9846 -0.1751
vn 0.0087 0.1741 0.9847
vn 0.0007 -0.9846 -0.1751
vn 0.0112 0.1741 0.9847
vn 0.0009 -0.9846 -0.1751
vn 0.1741 -0.0132 0.9846
vn 0.7071 0.0000 -0.7071
vn -0.9846 -0.0011 -0.1751
vn 0.1741 -0.0087 0.9847
vn -0.9846 -0.0007 -0.1751
vn 0.1741 -0.0112 0.9847
vn -0.9846 -0.0009 -0.1751
g negative-speed_Cube.099_Minus-symbol
usemtl Minus-symbol
s off
f 2/1/1 1/2/1 4/3/1 5/4/1
f 2/5/2 6/6/2 3/7/2 1/8/2
f 3/9/3 4/10/3 1/11/3
f 4/3/4 3/12/4 6/13/4 5/4/4
f 5/14/5 6/15/5 2/16/5
f 8/17/6 7/18/6 10/19/6 11/20/6
f 8/21/2 12/22/2 9/23/2 7/24/2
f 9/25/3 10/26/3 7/27/3
f 10/19/7 9/28/7 12/29/7 11/20/7
f 11/30/5 12/31/5 8/32/5
f 14/33/2 18/34/2 15/35/2 13/36/2
f 14/37/8 13/38/8 16/39/8 17/40/8
f 15/41/3 16/42/3 13/43/3
f 16/39/9 15/44/9 18/45/9 17/40/9
f 17/46/5 18/47/5 14/48/5
f 20/49/10 19/50/10 22/51/10 23/52/10
f 20/53/11 24/54/11 21/55/11 19/56/11
f 21/57/12 22/58/12 19/59/12
f 22/60/13 21/61/13 24/62/13 23/63/13
f 23/63/14 24/62/14 20/64/14
f 26/65/15 25/66/15 28/67/15 29/68/15
f 26/69/11 30/70/11 27/71/11 25/72/11
f 27/73/12 28/74/12 25/75/12
f 28/76/16 27/77/16 30/78/16 29/79/16
f 29/79/14 30/78/14 26/80/14
f 32/81/11 36/82/11 33/83/11 31/84/11
f 32/85/17 31/86/17 34/87/17 35/88/17
f 33/89/12 34/90/12 31/91/12
f 34/92/18 33/93/18 36/94/18 35/95/18
f 35/95/14 36/94/14 32/96/14
f 38/97/19 37/98/19 40/99/19 41/100/19
f 38/101/20 42/102/20 39/103/20 37/104/20
f 39/105/21 40/99/21 37/98/21
f 40/106/22 39/107/22 42/108/22 41/109/22
f 41/110/23 42/111/23 38/112/23
f 44/113/24 43/114/24 46/115/24 47/116/24
f 44/117/20 48/118/20 45/119/20 43/120/20
f 45/121/21 46/115/21 43/114/21
f 46/122/25 45/123/25 48/124/25 47/125/25
f 47/126/23 48/127/23 44/128/23
f 50/129/20 54/130/20 51/131/20 49/132/20
f 50/133/26 49/134/26 52/135/26 53/136/26
f 51/137/21 52/135/21 49/134/21
f 52/138/27 51/139/27 54/140/27 53/141/27
f 53/142/23 54/143/23 50/144/23
f 56/145/28 55/146/28 58/147/28 59/148/28
f 56/149/29 60/150/29 57/151/29 55/152/29
f 57/153/14 58/154/14 55/155/14
f 58/156/30 57/157/30 60/158/30 59/159/30
f 59/159/12 60/158/12 56/160/12
f 62/161/31 61/162/31 64/163/31 65/164/31
f 62/165/29 66/166/29 63/167/29 61/168/29
f 63/169/14 64/170/14 61/171/14
f 64/172/32 63/173/32 66/174/32 65/175/32
f 65/175/12 66/174/12 62/176/12
f 68/177/29 72/178/29 69/179/29 67/180/29
f 68/181/33 67/182/33 70/183/33 71/184/33
f 69/185/14 70/186/14 67/187/14
f 70/188/34 69/189/34 72/190/34 71/191/34
f 71/191/12 72/190/12 68/192/12
f 74/193/35 73/194/35 76/195/35 77/196/35
f 74/197/36 78/198/36 75/199/36 73/200/36
f 75/201/23 76/195/23 73/194/23
f 76/202/37 75/203/37 78/204/37 77/205/37
f 77/206/21 78/207/21 74/208/21
f 80/209/38 79/210/38 82/211/38 83/212/38
f 80/213/36 84/214/36 81/215/36 79/216/36
f 81/217/23 82/211/23 79/210/23
f 82/218/39 81/219/39 84/220/39 83/221/39
f 83/222/21 84/223/21 80/224/21
f 86/225/36 90/226/36 87/227/36 85/228/36
f 86/229/40 85/230/40 88/231/40 89/232/40
f 87/233/23 88/231/23 85/230/23
f 88/234/41 87/235/41 90/236/41 89/237/41
f 89/238/21 90/239/21 86/240/21
f 92/241/42 91/242/42 94/243/42 95/244/42
f 92/245/43 96/246/43 93/247/43 91/248/43
f 93/249/3 94/250/3 91/251/3
f 94/243/44 93/252/44 96/253/44 95/244/44
f 95/254/5 96/255/5 92/256/5
f 98/257/45 97/258/45 100/259/45 101/260/45
f 98/261/43 102/262/43 99/263/43 97/264/43
f 99/265/3 100/266/3 97/267/3
f 100/259/46 99/268/46 102/269/46 101/260/46
f 101/270/5 102/271/5 98/272/5
f 104/273/43 108/274/43 105/275/43 103/276/43
f 104/277/47 103/278/47 106/279/47 107/280/47
f 105/281/3 106/282/3 103/283/3
f 106/279/48 105/284/48 108/285/48 107/280/48
f 107/286/5 108/287/5 104/288/5
g negative-speed_Cube.099_Negative
usemtl Negative
f 110/289/5 113/290/5 112/291/5 109/292/5
f 109/293/23 111/294/23 116/295/23 110/296/23
f 112/297/12 114/298/12 111/294/12 109/293/12
f 113/299/21 115/300/21 114/301/21 112/291/21
f 115/302/3 116/303/3 111/304/3 114/305/3
f 110/306/14 116/307/14 115/300/14 113/299/14
