# Blender v2.92.0 OBJ File: 'powerups.blend'
# www.blender.org
mtllib negative-speed.mtl
o Cube.007_Cube.099
v 10.426579 1.071327 -0.012504
v 10.426579 0.952947 -0.012504
v 11.249712 1.071327 0.810629
v 11.425162 1.071327 -0.190649
v 11.427127 0.952947 -0.187826
v 11.247399 0.952947 0.808316
v 11.658115 1.047434 -0.727942
v 11.658115 0.977579 -0.727942
v 11.979080 1.047434 -0.406977
v 12.047494 1.047434 -0.797406
v 12.048260 0.977579 -0.796305
v 11.978179 0.977579 -0.407879
v 11.163000 1.057136 -0.459864
v 11.163000 0.967138 -0.459864
v 11.692423 1.057136 0.069560
v 11.805269 1.057137 -0.574443
v 11.806533 0.967138 -0.572627
v 11.690936 0.967138 0.068072
v 10.426579 0.015294 1.088705
v 10.426579 0.015294 0.970326
v 11.249712 -0.807839 1.088705
v 11.425161 0.193439 1.088705
v 11.427127 0.190615 0.970326
v 11.247399 -0.805526 0.970326
v 11.658115 0.730732 1.064813
v 11.658115 0.730732 0.994957
v 11.979080 0.409767 1.064813
v 12.047493 0.800196 1.064813
v 12.048260 0.799095 0.994957
v 11.978178 0.410669 0.994957
v 11.163000 0.462654 1.074515
v 11.163000 0.462654 0.984516
v 11.692423 -0.066770 1.074515
v 11.805268 0.577233 1.074515
v 11.806532 0.575417 0.984516
v 11.690935 -0.065282 0.984516
v 12.296051 0.842776 0.040434
v 12.177671 0.842776 0.040434
v 12.296051 0.019643 0.863567
v 12.296051 -0.155807 -0.137711
v 12.177671 -0.157771 -0.134887
v 12.177671 0.021956 0.861254
v 12.272158 -0.388760 -0.675004
v 12.202303 -0.388760 -0.675004
v 12.272159 -0.709725 -0.354039
v 12.272158 -0.778138 -0.744468
v 12.202303 -0.778904 -0.743367
v 12.202303 -0.708823 -0.354941
v 12.281860 0.106356 -0.406926
v 12.191862 0.106356 -0.406926
v 12.281860 -0.423068 0.122498
v 12.281860 -0.535914 -0.521505
v 12.191862 -0.537177 -0.519689
v 12.191862 -0.421580 0.121011
v 12.057267 -0.010831 -1.073629
v 12.057267 -0.010831 -0.955250
v 11.234135 -0.833965 -1.073629
v 11.058684 0.167314 -1.073629
v 11.056720 0.164490 -0.955250
v 11.236446 -0.831652 -0.955250
v 10.825730 0.704606 -1.049737
v 10.825730 0.704606 -0.979881
v 10.504766 0.383641 -1.049737
v 10.436352 0.774071 -1.049737
v 10.435586 0.772969 -0.979881
v 10.505668 0.384543 -0.979881
v 11.320847 0.436528 -1.059439
v 11.320847 0.436528 -0.969440
v 10.791423 -0.092895 -1.059439
v 10.678576 0.551107 -1.059439
v 10.677313 0.549291 -0.969440
v 10.792911 -0.091408 -0.969440
v 10.137085 0.864365 -0.027313
v 10.255465 0.864365 -0.027313
v 10.137085 0.041232 -0.850447
v 10.137085 -0.134218 0.150831
v 10.255465 -0.136183 0.148007
v 10.255465 0.043545 -0.848134
v 10.160977 -0.367172 0.688124
v 10.230833 -0.367172 0.688124
v 10.160977 -0.688137 0.367159
v 10.160977 -0.756550 0.757588
v 10.230833 -0.757316 0.756487
v 10.230833 -0.687235 0.368060
v 10.151276 0.127944 0.420046
v 10.241274 0.127944 0.420046
v 10.151276 -0.401479 -0.109378
v 10.151276 -0.514325 0.534625
v 10.241274 -0.515589 0.532808
v 10.241274 -0.399992 -0.107890
v 12.095290 -0.965367 -0.036074
v 12.095290 -1.083747 -0.036074
v 11.272157 -0.965368 -0.859207
v 11.096707 -0.965367 0.142071
v 11.094743 -1.083747 0.139247
v 11.274469 -1.083747 -0.856894
v 10.863754 -0.989260 0.679364
v 10.863754 -1.059115 0.679364
v 10.542789 -0.989260 0.358399
v 10.474376 -0.989260 0.748829
v 10.473610 -1.059115 0.747727
v 10.543691 -1.059116 0.359301
v 11.358870 -0.979558 0.411286
v 11.358870 -1.069556 0.411286
v 10.829445 -0.979558 -0.118138
v 10.716600 -0.979558 0.525865
v 10.715337 -1.069556 0.524049
v 10.830934 -1.069556 -0.116650
v 10.228852 -1.000000 1.000000
v 10.228852 -1.000000 -1.000000
v 10.228852 1.000000 0.999999
v 12.228852 -1.000000 1.000000
v 12.228852 -1.000000 -1.000000
v 12.228852 1.000000 1.000000
v 12.228852 1.000000 -1.000000
v 10.228852 1.000000 -1.000000
vt 0.953590 0.361080
vt 0.938312 0.361080
vt 0.938312 0.254393
vt 0.953590 0.253770
vt 0.938572 0.691942
vt 0.938572 0.478468
vt 0.953850 0.477867
vt 0.953850 0.691942
vt 0.107388 0.734221
vt 0.000000 0.626833
vt 0.107388 0.520146
vt 0.938312 0.147005
vt 0.953590 0.147606
vt 0.107388 0.626310
vt 0.214698 0.520146
vt 0.214698 0.733620
vt 0.505788 0.672015
vt 0.514804 0.672015
vt 0.514804 0.713616
vt 0.505788 0.713859
vt 0.505788 0.838964
vt 0.505788 0.755724
vt 0.514804 0.755490
vt 0.514804 0.838964
vt 0.256572 0.603621
vt 0.214698 0.561747
vt 0.256572 0.520146
vt 0.505788 0.755255
vt 0.482590 0.975834
vt 0.423730 0.975834
vt 0.482272 0.916660
vt 0.981424 0.927310
vt 0.981424 0.790008
vt 0.993039 0.789621
vt 0.993039 0.927310
vt 0.983152 0.752716
vt 0.971536 0.752716
vt 0.971536 0.684097
vt 0.983152 0.683697
vt 0.097361 0.734221
vt 0.097361 0.831901
vt 0.000000 0.831582
vt 0.971536 0.615028
vt 0.983152 0.615414
vt 0.815043 0.857904
vt 0.884063 0.789621
vt 0.884063 0.926923
vt 0.953851 0.477867
vt 0.971536 0.484261
vt 0.971536 0.642900
vt 0.953851 0.636818
vt 0.958370 0.000000
vt 0.958370 0.130399
vt 0.940684 0.137161
vt 0.940684 0.006394
vt 0.922835 0.429684
vt 0.815043 0.354845
vt 0.922835 0.278877
vt 0.488275 0.819053
vt 0.364869 0.774434
vt 0.367852 0.759023
vt 0.490510 0.804076
vt 0.490510 0.672015
vt 0.516225 0.988070
vt 0.505788 0.984297
vt 0.505788 0.922438
vt 0.516225 0.926090
vt 0.983152 0.776672
vt 0.983152 0.725826
vt 0.993588 0.721909
vt 0.993588 0.772899
vt 0.256729 0.662425
vt 0.214698 0.633243
vt 0.256729 0.603621
vt 0.807719 0.911890
vt 0.759599 0.894492
vt 0.761290 0.885447
vt 0.809118 0.903014
vt 0.809118 0.851520
vt 0.986554 0.324940
vt 0.986554 0.241070
vt 1.000000 0.235973
vt 1.000000 0.320079
vt 0.952018 0.370972
vt 0.965464 0.375833
vt 0.965464 0.477867
vt 0.952018 0.473206
vt 0.953392 0.971018
vt 0.884062 0.922884
vt 0.953392 0.874022
vt 0.595616 0.947867
vt 0.516244 0.919169
vt 0.518471 0.907481
vt 0.597362 0.936459
vt 0.597362 0.851520
vt 0.815043 0.102418
vt 0.817680 0.087253
vt 0.940684 0.132157
vt 0.938359 0.147005
vt 0.958369 0.137161
vt 0.958369 0.006762
vt 0.976055 0.000000
vt 0.976055 0.130767
vt 0.940684 0.000000
vt 0.986554 0.152951
vt 0.986554 0.312018
vt 0.968868 0.305256
vt 0.968868 0.147005
vt 0.938572 0.691942
vt 0.815043 0.646578
vt 0.938572 0.560813
vt 0.759599 0.954862
vt 0.761156 0.945912
vt 0.809119 0.963422
vt 0.807684 0.972247
vt 0.068870 0.983011
vt 0.068870 0.932165
vt 0.079306 0.928248
vt 0.079306 0.979238
vt 0.809119 0.911890
vt 0.991860 0.930908
vt 0.991860 0.992934
vt 0.981424 0.989017
vt 0.981424 0.927310
vt 0.214698 0.691904
vt 0.256698 0.662425
vt 0.256698 0.721064
vt 0.475404 0.908021
vt 0.475404 0.824150
vt 0.488849 0.819053
vt 0.488849 0.903159
vt 0.678481 0.919169
vt 0.680486 0.907639
vt 0.759599 0.936521
vt 0.757795 0.947846
vt 0.759599 0.851520
vt 0.503956 0.890663
vt 0.503956 0.992972
vt 0.490510 0.987874
vt 0.490510 0.886090
vt 0.312199 0.880625
vt 0.312199 0.965264
vt 0.233029 0.909698
vt 0.963738 0.789621
vt 0.981424 0.796016
vt 0.981424 0.954655
vt 0.963738 0.948573
vt 0.989222 0.477867
vt 0.989222 0.608266
vt 0.971536 0.615027
vt 0.971536 0.484261
vt 0.815043 0.192001
vt 0.938312 0.147005
vt 0.938312 0.278877
vt 0.230794 0.880657
vt 0.107388 0.836038
vt 0.110371 0.820627
vt 0.233029 0.865681
vt 0.233029 0.733620
vt 0.873546 0.992555
vt 0.863109 0.988781
vt 0.863109 0.926923
vt 0.873546 0.930575
vt 0.068870 0.928248
vt 0.068870 0.979095
vt 0.058434 0.983011
vt 0.058434 0.932021
vt 0.815043 0.944468
vt 0.863109 0.978344
vt 0.360318 0.940995
vt 0.312199 0.923597
vt 0.313890 0.914552
vt 0.361718 0.932119
vt 0.361718 0.880625
vt 1.000000 0.147005
vt 1.000000 0.230875
vt 0.986554 0.235973
vt 0.986554 0.151866
vt 0.938572 0.370972
vt 0.952018 0.375833
vt 0.952018 0.477867
vt 0.938572 0.473206
vt 0.963738 0.789621
vt 0.963738 0.874022
vt 0.884062 0.844939
vt 0.079372 0.928248
vt 0.000000 0.899550
vt 0.002227 0.887862
vt 0.081118 0.916840
vt 0.081118 0.831901
vt 0.233029 0.836039
vt 0.235666 0.820873
vt 0.358669 0.865777
vt 0.356345 0.880625
vt 0.098804 0.831901
vt 0.098804 0.962300
vt 0.081118 0.969062
vt 0.081118 0.838295
vt 0.358669 0.733620
vt 0.986554 0.317964
vt 0.986554 0.477031
vt 0.968868 0.470270
vt 0.968868 0.312018
vt 0.938572 0.560813
vt 0.815043 0.515449
vt 0.938572 0.429684
vt 0.176667 0.923629
vt 0.178223 0.914680
vt 0.226186 0.932190
vt 0.224752 0.941015
vt 0.047997 0.983011
vt 0.047997 0.932165
vt 0.058433 0.928248
vt 0.058433 0.979238
vt 0.226186 0.880657
vt 0.873546 0.988949
vt 0.873546 0.926923
vt 0.883982 0.930840
vt 0.883982 0.992547
vt 0.047997 0.928248
vt 0.047997 0.979561
vt 0.000000 0.945874
vt 0.475404 0.819053
vt 0.475404 0.902923
vt 0.461958 0.908021
vt 0.461958 0.823914
vt 0.597362 0.919169
vt 0.599368 0.907639
vt 0.678481 0.936521
vt 0.676677 0.947846
vt 0.678481 0.851520
vt 0.983151 0.717337
vt 0.983151 0.615027
vt 0.996597 0.620125
vt 0.996597 0.721909
vt 0.107388 0.929281
vt 0.176667 0.880657
vt 0.176667 0.977381
vt 0.505788 0.886090
vt 0.490510 0.886090
vt 0.490510 0.779403
vt 0.505788 0.778780
vt 0.953590 0.361080
vt 0.953590 0.147606
vt 0.968868 0.147005
vt 0.968868 0.361080
vt 0.515747 0.520146
vt 0.516244 0.672015
vt 0.364869 0.672015
vt 0.490510 0.672015
vt 0.505788 0.672617
vt 0.257560 0.626310
vt 0.364869 0.520146
vt 0.364869 0.733620
vt 0.106376 0.817696
vt 0.097361 0.817696
vt 0.097361 0.776095
vt 0.106376 0.775852
vt 0.505788 0.922439
vt 0.505788 0.839199
vt 0.514804 0.838964
vt 0.514804 0.922439
vt 0.971235 0.691942
vt 0.971429 0.751160
vt 0.912404 0.751160
vt 0.097361 0.734221
vt 0.106376 0.734456
vt 0.423730 0.975834
vt 0.364869 0.975834
vt 0.423412 0.916660
vt 0.987671 0.000000
vt 0.987671 0.137302
vt 0.976055 0.137689
vt 0.976055 0.000000
vt 0.934450 0.416566
vt 0.922835 0.416566
vt 0.922835 0.347947
vt 0.934450 0.347546
vt 0.912404 0.691942
vt 0.912404 0.789621
vt 0.815043 0.789302
vt 0.922835 0.278877
vt 0.934450 0.279264
vt 0.461958 0.916660
vt 0.364869 0.916660
vt 0.461434 0.819053
vt 0.815043 0.851520
vt 0.516244 0.743488
vt 0.516244 0.425760
vt 0.815043 0.533791
vt 0.258122 0.260073
vt 0.000000 0.260073
vt 0.000000 0.000000
vt 0.258122 0.000000
vt 0.258122 0.520146
vt 0.000000 0.520146
vt 0.516244 0.260073
vt 0.258122 0.260073
vt 0.258122 0.000000
vt 0.516244 0.000000
vt 0.815043 0.317729
vt 0.516244 0.425760
vt 0.516244 0.108031
vt 0.815043 0.000000
vt 0.516244 0.520146
vt 0.258122 0.520146
vn -0.1741 -0.0132 -0.9846
vn -0.7071 0.0000 0.7071
vn -0.0000 1.0000 0.0000
vn 0.9846 -0.0011 0.1751
vn 0.0000 -1.0000 -0.0000
vn -0.1741 -0.0087 -0.9847
vn 0.9846 -0.0007 0.1751
vn -0.1741 -0.0112 -0.9847
vn 0.9846 -0.0009 0.1751
vn -0.1741 0.9846 -0.0132
vn -0.7071 -0.7071 -0.0000
vn -0.0000 -0.0000 1.0000
vn 0.9846 -0.1751 -0.0011
vn 0.0000 0.0000 -1.0000
vn -0.1741 0.9847 -0.0087
vn 0.9846 -0.1751 -0.0007
vn -0.1741 0.9847 -0.0112
vn 0.9846 -0.1751 -0.0009
vn -0.0132 0.1741 -0.9846
vn 0.0000 0.7071 0.7071
vn 1.0000 0.0000 0.0000
vn -0.0011 -0.9846 0.1751
vn -1.0000 0.0000 0.0000
vn -0.0087 0.1741 -0.9847
vn -0.0007 -0.9846 0.1751
vn -0.0112 0.1741 -0.9847
vn -0.0009 -0.9846 0.1751
vn 0.1741 0.9846 0.0132
vn 0.7071 -0.7071 0.0000
vn -0.9846 -0.1751 0.0011
vn 0.1741 0.9847 0.0087
vn -0.9846 -0.1751 0.0007
vn 0.1741 0.9847 0.0112
vn -0.9846 -0.1751 0.0009
vn 0.0132 0.1741 0.9846
vn 0.0000 0.7071 -0.7071
vn 0.0011 -0.9846 -0.1751
vn 0.0087 0.1741 0.9847
vn 0.0007 -0.9846 -0.1751
vn 0.0112 0.1741 0.9847
vn 0.0009 -0.9846 -0.1751
vn 0.1741 -0.0132 0.9846
vn 0.7071 -0.0000 -0.7071
vn -0.9846 -0.0011 -0.1751
vn 0.1741 -0.0087 0.9847
vn -0.9846 -0.0007 -0.1751
vn 0.1741 -0.0112 0.9847
vn -0.9846 -0.0009 -0.1751
g Cube.007_Cube.099_Minus-symbol
usemtl Minus-symbol
s off
f 2/1/1 1/2/1 4/3/1 5/4/1
f 2/5/2 6/6/2 3/7/2 1/8/2
f 3/9/3 4/10/3 1/11/3
f 4/3/4 3/12/4 6/13/4 5/4/4
f 5/14/5 6/15/5 2/16/5
f 8/17/6 7/18/6 10/19/6 11/20/6
f 8/21/2 12/22/2 9/23/2 7/24/2
f 9/25/3 10/26/3 7/27/3
f 10/19/7 9/23/7 12/28/7 11/20/7
f 11/29/5 12/30/5 8/31/5
f 14/32/2 18/33/2 15/34/2 13/35/2
f 14/36/8 13/37/8 16/38/8 17/39/8
f 15/40/3 16/41/3 13/42/3
f 16/38/9 15/43/9 18/44/9 17/39/9
f 17/45/5 18/46/5 14/47/5
f 20/48/10 19/49/10 22/50/10 23/51/10
f 20/52/11 24/53/11 21/54/11 19/55/11
f 21/56/12 22/57/12 19/58/12
f 22/59/13 21/60/13 24/61/13 23/62/13
f 23/62/14 24/61/14 20/63/14
f 26/64/15 25/65/15 28/66/15 29/67/15
f 26/68/11 30/69/11 27/70/11 25/71/11
f 27/72/12 28/73/12 25/74/12
f 28/75/16 27/76/16 30/77/16 29/78/16
f 29/78/14 30/77/14 26/79/14
f 32/80/11 36/81/11 33/82/11 31/83/11
f 32/84/17 31/85/17 34/86/17 35/87/17
f 33/88/12 34/89/12 31/90/12
f 34/91/18 33/92/18 36/93/18 35/94/18
f 35/94/14 36/93/14 32/95/14
f 38/96/19 37/97/19 40/98/19 41/99/19
f 38/100/20 42/101/20 39/102/20 37/103/20
f 39/104/21 40/98/21 37/97/21
f 40/105/22 39/106/22 42/107/22 41/108/22
f 41/109/23 42/110/23 38/111/23
f 44/112/24 43/113/24 46/114/24 47/115/24
f 44/116/20 48/117/20 45/118/20 43/119/20
f 45/120/21 46/114/21 43/113/21
f 46/121/25 45/122/25 48/123/25 47/124/25
f 47/125/23 48/126/23 44/127/23
f 50/128/20 54/129/20 51/130/20 49/131/20
f 50/132/26 49/133/26 52/134/26 53/135/26
f 51/136/21 52/134/21 49/133/21
f 52/137/27 51/138/27 54/139/27 53/140/27
f 53/141/23 54/142/23 50/143/23
f 56/144/28 55/145/28 58/146/28 59/147/28
f 56/148/29 60/149/29 57/150/29 55/151/29
f 57/152/14 58/153/14 55/154/14
f 58/155/30 57/156/30 60/157/30 59/158/30
f 59/158/12 60/157/12 56/159/12
f 62/160/31 61/161/31 64/162/31 65/163/31
f 62/164/29 66/165/29 63/166/29 61/167/29
f 63/168/14 64/162/14 61/169/14
f 64/170/32 63/171/32 66/172/32 65/173/32
f 65/173/12 66/172/12 62/174/12
f 68/175/29 72/176/29 69/177/29 67/178/29
f 68/179/33 67/180/33 70/181/33 71/182/33
f 69/183/14 70/184/14 67/185/14
f 70/186/34 69/187/34 72/188/34 71/189/34
f 71/189/12 72/188/12 68/190/12
f 74/191/35 73/192/35 76/193/35 77/194/35
f 74/195/36 78/196/36 75/197/36 73/198/36
f 75/199/23 76/193/23 73/192/23
f 76/200/37 75/201/37 78/202/37 77/203/37
f 77/204/21 78/205/21 74/206/21
f 80/207/38 79/208/38 82/209/38 83/210/38
f 80/211/36 84/212/36 81/213/36 79/214/36
f 81/215/23 82/209/23 79/208/23
f 82/216/39 81/217/39 84/218/39 83/219/39
f 83/220/21 84/221/21 80/222/21
f 86/223/36 90/224/36 87/225/36 85/226/36
f 86/227/40 85/228/40 88/229/40 89/230/40
f 87/231/23 88/229/23 85/228/23
f 88/232/41 87/233/41 90/234/41 89/235/41
f 89/236/21 90/237/21 86/238/21
f 92/239/42 91/240/42 94/241/42 95/242/42
f 92/243/43 96/244/43 93/245/43 91/246/43
f 93/247/3 94/248/3 91/249/3
f 94/241/44 93/250/44 96/251/44 95/242/44
f 95/252/5 96/253/5 92/254/5
f 98/255/45 97/256/45 100/257/45 101/258/45
f 98/259/43 102/260/43 99/261/43 97/262/43
f 99/263/3 100/264/3 97/265/3
f 100/257/46 99/266/46 102/267/46 101/258/46
f 101/268/5 102/269/5 98/270/5
f 104/271/43 108/272/43 105/273/43 103/274/43
f 104/275/47 103/276/47 106/277/47 107/278/47
f 105/279/3 106/280/3 103/281/3
f 106/277/48 105/282/48 108/283/48 107/278/48
f 107/284/5 108/285/5 104/286/5
g Cube.007_Cube.099_Negative
usemtl Negative
f 110/287/5 113/288/5 112/289/5 109/290/5
f 109/291/23 111/292/23 116/293/23 110/294/23
f 112/295/12 114/296/12 111/292/12 109/291/12
f 113/297/21 115/298/21 114/299/21 112/300/21
f 115/301/3 116/302/3 111/303/3 114/304/3
f 110/305/14 116/306/14 115/298/14 113/297/14
