# Blender v2.92.0 OBJ File: 'powerups.blend'
# www.blender.org
mtllib positive-speed.mtl
o Cube.004_Cube.058
v 7.811127 -1.000000 1.000000
v 7.811127 -1.000000 -1.000000
v 7.811127 1.000000 1.000000
v 9.811127 -1.000000 1.000000
v 9.811127 -1.000000 -1.000000
v 9.811127 1.000000 1.000000
v 9.811127 1.000000 -1.000000
v 7.811127 1.000000 -1.000000
v 8.520344 0.501507 1.074404
v 8.520344 0.501507 0.956025
v 9.343477 -0.321627 1.074404
v 9.518927 0.679652 1.074404
v 9.520891 0.676828 0.956025
v 9.341165 -0.319314 0.956025
v 8.153040 -0.349869 1.050142
v 8.474006 -0.670835 1.050142
v 8.153040 -0.349869 0.980286
v 8.542418 -0.280405 1.050142
v 8.543184 -0.281506 0.980286
v 8.473104 -0.669933 0.980286
v 8.274069 -0.009442 1.060214
v 8.274069 -0.009442 0.970215
v 8.803493 -0.538866 1.060214
v 8.916338 0.105137 1.060214
v 8.917602 0.103321 0.970215
v 8.802005 -0.537378 0.970215
v 8.546240 1.085087 -0.564849
v 8.546240 0.966708 -0.564849
v 9.369373 1.085087 0.258284
v 9.544823 1.085087 -0.742994
v 9.546787 0.966708 -0.740170
v 9.367061 0.966708 0.255972
v 8.178936 1.060825 0.286527
v 8.499902 1.060825 0.607492
v 8.178936 0.990970 0.286527
v 8.568315 1.060825 0.217063
v 8.569080 0.990970 0.218164
v 8.499000 0.990970 0.606590
v 8.299965 1.070897 -0.053901
v 8.299965 0.980898 -0.053901
v 8.829389 1.070897 0.475523
v 8.942234 1.070897 -0.168480
v 8.943498 0.980898 -0.166664
v 8.827901 0.980898 0.474035
v 7.752244 -0.287837 -0.511065
v 7.870624 -0.287837 -0.511065
v 7.752244 0.535296 0.312069
v 7.752244 0.710746 -0.689210
v 7.870624 0.712711 -0.686386
v 7.870624 0.532984 0.309756
v 7.776506 -0.655141 0.340311
v 7.776506 -0.334175 0.661276
v 7.846362 -0.655141 0.340311
v 7.776506 -0.265762 0.270847
v 7.846362 -0.264996 0.271948
v 7.846362 -0.335077 0.660375
v 7.766435 -0.534112 -0.000116
v 7.856433 -0.534112 -0.000116
v 7.766435 -0.004688 0.529307
v 7.766435 0.108157 -0.114695
v 7.856433 0.109421 -0.112879
v 7.856433 -0.006176 0.527820
v 8.463698 -0.435412 -1.073684
v 8.463698 -0.435412 -0.955304
v 9.286832 0.387721 -1.073684
v 9.462281 -0.613557 -1.073684
v 9.464246 -0.610734 -0.955304
v 9.284519 0.385408 -0.955304
v 8.096395 0.415964 -1.049422
v 8.417360 0.736929 -1.049422
v 8.096395 0.415964 -0.979566
v 8.485773 0.346500 -1.049422
v 8.486539 0.347601 -0.979566
v 8.416458 0.736027 -0.979566
v 8.217423 0.075537 -1.059493
v 8.217423 0.075536 -0.969495
v 8.746847 0.604960 -1.059493
v 8.859693 -0.039043 -1.059493
v 8.860956 -0.037227 -0.969495
v 8.745359 0.603472 -0.969494
v 9.902339 0.371420 -0.457837
v 9.783959 0.371420 -0.457837
v 9.902339 -0.451713 0.365296
v 9.902339 -0.627163 -0.635982
v 9.783959 -0.629127 -0.633159
v 9.783959 -0.449401 0.362983
v 9.878077 0.738723 0.393539
v 9.878077 0.417758 0.714504
v 9.808222 0.738723 0.393539
v 9.878077 0.349345 0.324075
v 9.808222 0.348579 0.325176
v 9.808221 0.418660 0.713602
v 9.888148 0.617695 0.053112
v 9.798150 0.617695 0.053112
v 9.888148 0.088271 0.582535
v 9.888148 -0.024574 -0.061468
v 9.798150 -0.025838 -0.059652
v 9.798150 0.089759 0.581048
v 9.110097 -0.967033 0.518840
v 9.110097 -1.085413 0.518840
v 8.286963 -0.967033 -0.304293
v 8.111514 -0.967033 0.696985
v 8.109550 -1.085412 0.694161
v 8.289276 -1.085413 -0.301980
v 9.477401 -0.991295 -0.332536
v 9.156435 -0.991295 -0.653501
v 9.477401 -1.061151 -0.332536
v 9.088022 -0.991295 -0.263072
v 9.087256 -1.061151 -0.264173
v 9.157337 -1.061151 -0.652599
v 9.356372 -0.981224 0.007891
v 9.356372 -1.071222 0.007891
v 8.826948 -0.981224 -0.521532
v 8.714103 -0.981224 0.122471
v 8.712839 -1.071222 0.120655
v 8.828436 -1.071222 -0.520045
vt 0.285847 0.286344
vt 0.285847 0.000502
vt 0.571658 0.000000
vt 0.571658 0.285842
vt 0.571790 0.572426
vt 0.571790 0.286348
vt 0.857470 0.286344
vt 0.857470 0.572422
vt 0.285685 0.286358
vt 0.285685 0.572435
vt 0.000000 0.572385
vt 0.000000 0.286309
vt 0.857581 0.000000
vt 0.857579 0.286078
vt 0.571658 0.286078
vt 0.000000 0.000438
vt 0.285847 0.000000
vt 0.285847 0.285871
vt 0.000000 0.286309
vt 0.285866 0.572422
vt 0.285847 0.286344
vt 0.571770 0.286344
vt 0.571790 0.572422
vt 0.967909 0.213700
vt 0.950989 0.213786
vt 0.951006 0.070038
vt 0.967909 0.069687
vt 0.676378 0.984730
vt 0.676378 0.862549
vt 0.693281 0.862878
vt 0.693281 0.985402
vt 0.571790 0.622308
vt 0.708367 0.572426
vt 0.708367 0.717329
vt 0.980716 0.213862
vt 0.980716 0.357091
vt 0.963805 0.356662
vt 0.963781 0.214168
vt 0.707700 0.862549
vt 0.571790 0.812645
vt 0.707700 0.717329
vt 0.269011 0.903465
vt 0.322267 0.884015
vt 0.322267 0.940517
vt 0.564464 0.884020
vt 0.564464 0.940475
vt 0.511308 0.903538
vt 0.864848 0.713267
vt 0.864848 0.665625
vt 0.874823 0.665888
vt 0.874823 0.713664
vt 0.903295 0.917897
vt 0.903295 0.973747
vt 0.893313 0.973560
vt 0.893304 0.917997
vt 0.943999 0.056155
vt 0.934014 0.056206
vt 0.934021 0.000154
vt 0.943999 0.000000
vt 0.401148 0.976641
vt 0.388284 0.976707
vt 0.388295 0.884251
vt 0.401148 0.884015
vt 0.857612 0.996481
vt 0.857612 0.917897
vt 0.870463 0.918187
vt 0.870463 0.996993
vt 0.844892 0.604509
vt 0.932736 0.572426
vt 0.932736 0.665625
vt 0.996419 0.572426
vt 0.996419 0.664548
vt 0.983561 0.664261
vt 0.983545 0.572612
vt 0.945149 0.472881
vt 0.945149 0.566002
vt 0.857470 0.505075
vt 0.949350 0.824426
vt 0.966283 0.824431
vt 0.966283 0.968029
vt 0.949349 0.968291
vt 0.241015 0.995096
vt 0.241015 0.883999
vt 0.257948 0.883624
vt 0.257948 0.995033
vt 0.272624 0.572435
vt 0.272624 0.717696
vt 0.136404 0.668193
vt 0.949349 0.824426
vt 0.949349 0.968400
vt 0.932416 0.968081
vt 0.932417 0.824821
vt 0.540663 0.884020
vt 0.404837 0.834391
vt 0.540663 0.738886
vt 0.458073 0.903366
vt 0.511308 0.884020
vt 0.511308 0.940535
vt 0.087298 0.894491
vt 0.133592 0.862297
vt 0.133592 0.927042
vt 0.894792 0.709104
vt 0.894792 0.665784
vt 0.904784 0.665625
vt 0.904784 0.709067
vt 0.963981 0.000000
vt 0.963981 0.056140
vt 0.953989 0.056016
vt 0.953989 0.000154
vt 0.973973 0.056098
vt 0.963981 0.056095
vt 0.963981 0.000101
vt 0.973973 0.000000
vt 0.993589 0.306393
vt 0.980716 0.306389
vt 0.980716 0.214030
vt 0.993589 0.213862
vt 0.268126 0.810465
vt 0.268126 0.881920
vt 0.255253 0.882169
vt 0.255253 0.810512
vt 0.934014 0.107096
vt 0.857581 0.053366
vt 0.934014 0.000000
vt 0.987124 0.717363
vt 0.987124 0.809964
vt 0.974251 0.809759
vt 0.974251 0.717617
vt 0.659468 0.862549
vt 0.659468 0.955559
vt 0.571790 0.894586
vt 0.983207 0.967597
vt 0.966283 0.967694
vt 0.966298 0.824802
vt 0.983207 0.824426
vt 0.984816 0.069687
vt 0.984816 0.192145
vt 0.967909 0.193120
vt 0.967909 0.070317
vt 0.000000 0.622229
vt 0.136404 0.572435
vt 0.136404 0.717521
vt 0.962214 0.379661
vt 0.962214 0.523737
vt 0.945310 0.523326
vt 0.945280 0.379961
vt 0.844756 0.717363
vt 0.844756 0.862074
vt 0.708367 0.767452
vt 0.375410 0.884015
vt 0.375410 0.940636
vt 0.322267 0.921237
vt 0.963780 0.270517
vt 0.910812 0.251064
vt 0.963780 0.213862
vt 0.854869 0.665625
vt 0.854869 0.713375
vt 0.844892 0.713881
vt 0.844892 0.665996
vt 0.268126 0.882169
vt 0.268126 0.938348
vt 0.258148 0.938170
vt 0.258136 0.882267
vt 0.893304 0.973724
vt 0.883317 0.973781
vt 0.883323 0.918063
vt 0.893304 0.917897
vt 0.997683 0.161772
vt 0.984816 0.161846
vt 0.984826 0.069941
vt 0.997683 0.069687
vt 0.983207 0.996005
vt 0.983207 0.917243
vt 0.996060 0.916542
vt 0.996060 0.995527
vt 0.857470 0.318370
vt 0.945203 0.286344
vt 0.945203 0.379660
vt 0.958074 0.286344
vt 0.958074 0.379011
vt 0.945222 0.378736
vt 0.945203 0.286526
vt 0.857581 0.160150
vt 0.934054 0.107096
vt 0.934054 0.213862
vt 0.966607 0.716447
vt 0.949690 0.716350
vt 0.949671 0.572593
vt 0.966607 0.572426
vt 0.676378 0.862549
vt 0.676378 0.984661
vt 0.659467 0.985599
vt 0.659467 0.863143
vt 0.404837 0.738881
vt 0.285847 0.655314
vt 0.404837 0.572422
vt 0.979150 0.379660
vt 0.979150 0.522881
vt 0.962214 0.522648
vt 0.962238 0.380163
vt 0.136213 0.717521
vt 0.136213 0.862297
vt 0.000000 0.767520
vt 0.570222 0.637329
vt 0.523824 0.604744
vt 0.570222 0.572422
vt 0.523824 0.669572
vt 0.570163 0.637329
vt 0.570163 0.702035
vt 0.854869 0.713725
vt 0.854869 0.666110
vt 0.864848 0.665625
vt 0.864848 0.713374
vt 0.903304 0.973743
vt 0.903295 0.917897
vt 0.913286 0.917967
vt 0.913286 0.973526
vt 0.953989 0.056158
vt 0.944006 0.056101
vt 0.943999 0.000045
vt 0.953989 0.000000
vt 0.388284 0.976646
vt 0.375423 0.976572
vt 0.375410 0.884111
vt 0.388284 0.884015
vt 0.857612 0.917897
vt 0.857612 0.996438
vt 0.844756 0.997110
vt 0.844756 0.918349
vt 0.921288 0.824426
vt 0.844756 0.770678
vt 0.921288 0.717363
vt 0.996081 0.824426
vt 0.996081 0.916542
vt 0.983207 0.916404
vt 0.983222 0.824760
vt 0.795977 0.862074
vt 0.795977 0.955191
vt 0.708367 0.894232
vt 0.983545 0.715494
vt 0.966622 0.715395
vt 0.966607 0.572609
vt 0.983545 0.572426
vt 0.996057 0.380290
vt 0.996057 0.502172
vt 0.979150 0.501886
vt 0.979150 0.379660
vt 0.523824 0.738886
vt 0.404837 0.655446
vt 0.523824 0.572422
vt 0.950989 0.069687
vt 0.950989 0.213862
vt 0.934054 0.213636
vt 0.934084 0.070168
vt 0.136404 0.800049
vt 0.255253 0.717696
vt 0.255253 0.883624
vt 0.857581 0.233294
vt 0.910812 0.213862
vt 0.910812 0.270437
vt 0.795977 0.894186
vt 0.842320 0.862074
vt 0.842320 0.926774
vt 0.874823 0.713151
vt 0.874823 0.665625
vt 0.884800 0.665863
vt 0.884800 0.713522
vt 0.553227 0.814561
vt 0.553227 0.870780
vt 0.543238 0.870709
vt 0.543249 0.814767
vt 0.923278 0.973684
vt 0.913292 0.973625
vt 0.913286 0.917949
vt 0.923278 0.917897
vt 1.000000 0.809381
vt 0.987134 0.809306
vt 0.987124 0.717469
vt 1.000000 0.717363
vt 0.883317 0.918376
vt 0.883317 0.996768
vt 0.870463 0.996510
vt 0.870463 0.917897
vt 0.932416 0.824426
vt 0.932416 0.917897
vt 0.844756 0.885898
vt 0.706154 0.862549
vt 0.706154 0.955279
vt 0.693281 0.955145
vt 0.693301 0.862869
vt 0.087298 0.955746
vt 0.000000 0.923685
vt 0.087298 0.862297
vt 0.932738 0.572426
vt 0.949671 0.572433
vt 0.949671 0.716409
vt 0.932737 0.716661
vt 0.241015 0.883623
vt 0.241015 0.997106
vt 0.224082 0.997463
vt 0.224082 0.883661
vt 0.708367 0.622040
vt 0.844892 0.572426
vt 0.844892 0.717363
vt 0.570163 0.702035
vt 0.570163 0.846381
vt 0.553230 0.846068
vt 0.553230 0.702424
vt 0.404837 0.884015
vt 0.269011 0.834386
vt 0.404837 0.738881
vt 0.404837 0.903366
vt 0.458073 0.884020
vt 0.458073 0.940535
vt 0.974251 0.773955
vt 0.921288 0.754603
vt 0.974251 0.717363
vt 0.894792 0.665625
vt 0.894792 0.709875
vt 0.884800 0.710022
vt 0.884800 0.665647
vt 0.553230 0.702035
vt 0.553230 0.758320
vt 0.543238 0.758198
vt 0.543238 0.702187
vt 0.553231 0.814562
vt 0.543239 0.814558
vt 0.543238 0.758417
vt 0.553231 0.758320
vt 0.255254 0.717696
vt 0.268127 0.717701
vt 0.268127 0.810303
vt 0.255253 0.810465
vt 0.272624 0.738499
vt 0.272624 0.665510
vt 0.285498 0.665275
vt 0.285498 0.738471
vt 0.857470 0.411571
vt 0.945281 0.379660
vt 0.945281 0.472881
vt 0.285498 0.572435
vt 0.272624 0.665074
vt 0.272625 0.572685
vt 0.224082 0.883623
vt 0.224082 0.976633
vt 0.136404 0.915660
vn 0.0000 -1.0000 0.0000
vn -1.0000 0.0000 0.0000
vn 0.0000 0.0000 1.0000
vn 1.0000 0.0000 0.0000
vn 0.0000 1.0000 0.0000
vn 0.0000 0.0000 -1.0000
vn -0.1741 0.9846 -0.0132
vn -0.7071 -0.7071 -0.0000
vn 0.9846 -0.1751 -0.0011
vn 0.9846 -0.1751 -0.0007
vn -0.1741 0.9847 -0.0087
vn -0.1741 0.9847 -0.0112
vn 0.9846 -0.1751 -0.0009
vn -0.1741 -0.0132 -0.9846
vn -0.7071 0.0000 0.7071
vn 0.9846 -0.0011 0.1751
vn 0.9846 -0.0007 0.1751
vn -0.1741 -0.0087 -0.9847
vn -0.1741 -0.0112 -0.9847
vn 0.9846 -0.0009 0.1751
vn 0.0132 -0.1741 -0.9846
vn 0.0000 -0.7071 0.7071
vn 0.0011 0.9846 0.1751
vn 0.0007 0.9846 0.1751
vn 0.0087 -0.1741 -0.9847
vn 0.0112 -0.1741 -0.9847
vn 0.0009 0.9846 0.1751
vn -0.1741 -0.9846 0.0132
vn -0.7071 0.7071 0.0000
vn 0.9846 0.1751 0.0011
vn 0.9846 0.1751 0.0007
vn -0.1741 -0.9847 0.0087
vn -0.1741 -0.9847 0.0112
vn 0.9846 0.1751 0.0009
vn -0.0132 0.1741 -0.9846
vn 0.0000 0.7071 0.7071
vn -0.0011 -0.9846 0.1751
vn -0.0007 -0.9846 0.1751
vn -0.0087 0.1741 -0.9847
vn -0.0112 0.1741 -0.9847
vn -0.0009 -0.9846 0.1751
vn 0.1741 -0.0132 0.9846
vn 0.7071 -0.0000 -0.7071
vn -0.9846 -0.0011 -0.1751
vn -0.9846 -0.0007 -0.1751
vn 0.1741 -0.0087 0.9847
vn 0.1741 -0.0112 0.9847
vn -0.9846 -0.0009 -0.1751
g Cube.004_Cube.058_Positive
usemtl Positive
s off
f 2/1/1 5/2/1 4/3/1 1/4/1
f 1/5/2 3/6/2 8/7/2 2/8/2
f 4/9/3 6/10/3 3/11/3 1/12/3
f 5/13/4 7/14/4 6/15/4 4/3/4
f 7/16/5 8/17/5 3/18/5 6/19/5
f 2/20/6 8/21/6 7/22/6 5/23/6
g Cube.004_Cube.058_Plus-symbol
usemtl Plus-symbol
f 10/24/7 9/25/7 12/26/7 13/27/7
f 10/28/8 14/29/8 11/30/8 9/31/8
f 11/32/3 12/33/3 9/34/3
f 12/35/9 11/36/9 14/37/9 13/38/9
f 13/39/6 14/40/6 10/41/6
f 16/42/3 18/43/3 15/44/3
f 19/45/6 20/46/6 17/47/6
f 17/48/8 20/49/8 16/50/8 15/51/8
f 18/52/10 16/53/10 20/54/10 19/55/10
f 17/56/11 15/57/11 18/58/11 19/59/11
f 22/60/12 21/61/12 24/62/12 25/63/12
f 22/64/8 26/65/8 23/66/8 21/67/8
f 23/68/3 24/69/3 21/70/3
f 24/71/13 23/72/13 26/73/13 25/74/13
f 25/75/6 26/76/6 22/77/6
f 28/78/14 27/79/14 30/80/14 31/81/14
f 28/82/15 32/83/15 29/84/15 27/85/15
f 29/86/5 30/87/5 27/88/5
f 30/89/16 29/90/16 32/91/16 31/92/16
f 31/93/1 32/94/1 28/95/1
f 34/96/5 36/97/5 33/98/5
f 37/99/1 38/100/1 35/101/1
f 35/102/15 38/103/15 34/104/15 33/105/15
f 36/106/17 34/107/17 38/108/17 37/109/17
f 35/110/18 33/111/18 36/112/18 37/113/18
f 40/114/19 39/115/19 42/116/19 43/117/19
f 40/118/15 44/119/15 41/120/15 39/121/15
f 41/122/5 42/123/5 39/124/5
f 42/125/20 41/126/20 44/127/20 43/128/20
f 43/129/1 44/130/1 40/131/1
f 46/132/21 45/133/21 48/134/21 49/135/21
f 46/136/22 50/137/22 47/138/22 45/139/22
f 47/140/2 48/141/2 45/142/2
f 48/143/23 47/144/23 50/145/23 49/146/23
f 49/147/4 50/148/4 46/149/4
f 52/150/2 54/151/2 51/152/2
f 55/153/4 56/154/4 53/155/4
f 53/156/22 56/157/22 52/158/22 51/159/22
f 54/160/24 52/161/24 56/162/24 55/163/24
f 53/164/25 51/165/25 54/166/25 55/167/25
f 58/168/26 57/169/26 60/170/26 61/171/26
f 58/172/22 62/173/22 59/174/22 57/175/22
f 59/176/2 60/177/2 57/178/2
f 60/179/27 59/180/27 62/181/27 61/182/27
f 61/183/4 62/184/4 58/185/4
f 64/186/28 63/187/28 66/188/28 67/189/28
f 64/190/29 68/191/29 65/192/29 63/193/29
f 65/194/6 66/195/6 63/196/6
f 66/197/30 65/198/30 68/199/30 67/200/30
f 67/201/3 68/202/3 64/203/3
f 70/204/6 72/205/6 69/206/6
f 73/207/3 74/208/3 71/209/3
f 71/210/29 74/211/29 70/212/29 69/213/29
f 72/214/31 70/215/31 74/216/31 73/217/31
f 71/218/32 69/219/32 72/220/32 73/221/32
f 76/222/33 75/223/33 78/224/33 79/225/33
f 76/226/29 80/227/29 77/228/29 75/229/29
f 77/230/6 78/231/6 75/232/6
f 78/233/34 77/234/34 80/235/34 79/236/34
f 79/237/3 80/238/3 76/239/3
f 82/240/35 81/241/35 84/242/35 85/243/35
f 82/244/36 86/245/36 83/246/36 81/247/36
f 83/248/4 84/249/4 81/250/4
f 84/251/37 83/252/37 86/253/37 85/254/37
f 85/255/2 86/256/2 82/257/2
f 88/258/4 90/259/4 87/260/4
f 91/261/2 92/262/2 89/263/2
f 89/264/36 92/265/36 88/266/36 87/267/36
f 90/268/38 88/269/38 92/270/38 91/271/38
f 89/272/39 87/273/39 90/274/39 91/275/39
f 94/276/40 93/277/40 96/278/40 97/279/40
f 94/280/36 98/281/36 95/282/36 93/283/36
f 95/284/4 96/285/4 93/286/4
f 96/287/41 95/288/41 98/289/41 97/290/41
f 97/291/2 98/292/2 94/293/2
f 100/294/42 99/295/42 102/296/42 103/297/42
f 100/298/43 104/299/43 101/300/43 99/301/43
f 101/302/5 102/303/5 99/304/5
f 102/305/44 101/306/44 104/307/44 103/308/44
f 103/309/1 104/310/1 100/311/1
f 106/312/5 108/313/5 105/314/5
f 109/315/1 110/316/1 107/317/1
f 107/318/43 110/319/43 106/320/43 105/321/43
f 108/322/45 106/323/45 110/324/45 109/325/45
f 107/326/46 105/327/46 108/328/46 109/329/46
f 112/330/47 111/331/47 114/332/47 115/333/47
f 112/334/43 116/335/43 113/336/43 111/337/43
f 113/338/5 114/339/5 111/340/5
f 114/341/48 113/336/48 116/342/48 115/343/48
f 115/344/1 116/345/1 112/346/1
